<svg id="visual" viewBox="0 0 960 540" width="960" height="540" xmlns="http://www.w3.org/2000/svg" xmlns:xlink="http://www.w3.org/1999/xlink" version="1.1"><path d="M0 433L20 439.2C40 445.3 80 457.7 120 460.7C160 463.7 200 457.3 240 453.5C280 449.7 320 448.3 360 455C400 461.7 440 476.3 480 484.3C520 492.3 560 493.7 600 482C640 470.3 680 445.7 720 434.7C760 423.7 800 426.3 840 431.2C880 436 920 443 940 446.5L960 450L960 541L940 541C920 541 880 541 840 541C800 541 760 541 720 541C680 541 640 541 600 541C560 541 520 541 480 541C440 541 400 541 360 541C320 541 280 541 240 541C200 541 160 541 120 541C80 541 40 541 20 541L0 541Z" fill="#0E7490" stroke-linecap="round" stroke-linejoin="miter"></path></svg>